<svg xmlns="http://www.w3.org/2000/svg" width="64" height="64" viewBox="0 0 282.355 282.355"><path fill="#00ADEE" d="M253.23 219.31l-45.587 45.573-45.731-45.716c-4.057-4.058-4.057-10.644 0-14.715l45.603-45.573 45.716 45.716a10.389 10.389 0 0 1-.001 14.715zm0-156.229c4.072 4.064 4.072 10.651.029 14.723l-45.474 45.709-45.588-45.595c-4.058-4.058-4.071-10.65-.028-14.715l45.474-45.709 45.587 45.587zm-134.005 7.508L48.636 0 3.048 45.595c-4.064 4.05-4.064 10.644 0 14.708l80.882 80.875-80.882 80.89c-4.064 4.058-4.064 10.644 0 14.687l45.588 45.602 133.821-133.82c4.057-4.064 4.057-10.65 0-14.708l-63.232-63.24z"/></svg>
